<svg width="152" height="75" viewBox="0 0 152 75" fill="none" xmlns="http://www.w3.org/2000/svg">
<path d="M19.9104 22.8182C23.6784 22.8182 26.697 23.8671 28.9664 25.9649C31.2357 28.0189 32.3704 31.3404 32.3704 35.9292V59.2667H22.8006V38.3547C22.8006 35.7762 22.351 33.8533 21.4518 32.5859C20.5526 31.2748 19.1182 30.6193 17.1486 30.6193C14.237 30.6193 12.2459 31.6463 11.1755 33.7003C10.105 35.7107 9.56982 38.617 9.56982 42.4191V59.2667H0V23.4738H7.32188L8.60642 28.0626H9.12023C10.2335 26.2271 11.7535 24.8941 13.6804 24.0638C15.65 23.2334 17.7267 22.8182 19.9104 22.8182Z" fill="#033824"/>
<path d="M51.7815 23.4738V59.2667H42.2117V23.4738H51.7815Z" fill="#033824"/>
<path d="M81.6912 22.8182C85.4592 22.8182 88.4779 23.8671 90.7472 25.9649C93.0166 28.0189 94.1512 31.3404 94.1512 35.9292V59.2667H84.5814V38.3547C84.5814 35.7762 84.1318 33.8533 83.2327 32.5859C82.3335 31.2748 80.8991 30.6193 78.9294 30.6193C76.0178 30.6193 74.0268 31.6463 72.9563 33.7003C71.8859 35.7107 71.3507 38.617 71.3507 42.4191V59.2667H61.7808V23.4738H69.1027L70.3873 28.0626H70.9011C72.0143 26.2271 73.5344 24.8941 75.4612 24.0638C77.4308 23.2334 79.5075 22.8182 81.6912 22.8182Z" fill="#033824"/>
<path d="M101.167 74.9999C100.096 74.9999 98.9828 74.9125 97.8267 74.7377C96.6278 74.6065 95.643 74.4317 94.8723 74.2132V66.5433C95.643 66.7181 96.3709 66.8492 97.056 66.9366C97.7411 67.0677 98.5118 67.1333 99.3682 67.1333C100.653 67.1333 101.745 66.7618 102.644 66.0189C103.543 65.2759 103.993 63.8337 103.993 61.6922V23.4738H113.562V63.1345C113.562 65.3196 113.156 67.3081 112.342 69.0999C111.528 70.8918 110.201 72.3121 108.36 73.361C106.562 74.4536 104.164 74.9999 101.167 74.9999Z" fill="#033824"/>
<path d="M137.106 22.7527C141.816 22.7527 145.413 23.8016 147.896 25.8993C150.422 27.9534 151.685 31.1219 151.685 35.4048V59.2667H145.006L143.143 54.4157H142.886C141.388 56.3386 139.803 57.7371 138.133 58.6112C136.464 59.4852 134.173 59.9223 131.261 59.9223C128.135 59.9223 125.545 59.0045 123.49 57.169C121.434 55.2897 120.407 52.4272 120.407 48.5813C120.407 44.7791 121.713 41.9821 124.325 40.1903C126.937 38.3547 130.854 37.3496 136.078 37.1747L142.18 36.9781V35.4048C142.18 33.5255 141.687 32.1489 140.703 31.2748C139.761 30.4007 138.433 29.9637 136.72 29.9637C135.008 29.9637 133.338 30.2259 131.711 30.7504C130.084 31.2311 128.457 31.843 126.83 32.5859L123.682 25.9649C125.566 24.9597 127.643 24.173 129.912 23.6049C132.225 23.0368 134.622 22.7527 137.106 22.7527ZM138.455 42.8125C135.372 42.8999 133.231 43.468 132.032 44.5169C130.833 45.5658 130.234 46.9424 130.234 48.6468C130.234 50.1327 130.662 51.2035 131.518 51.859C132.374 52.4709 133.488 52.7768 134.858 52.7768C136.913 52.7768 138.647 52.1649 140.06 50.9413C141.473 49.6739 142.18 47.9039 142.18 45.6313V42.6814L138.455 42.8125Z" fill="#033824"/>
<path d="M37.9581 0L58.9888 13.7518C58.9888 13.7518 36.9011 24.3622 37.9581 0Z" fill="#033824"/>
<path d="M120.469 0L99.4382 13.7518C99.4382 13.7518 121.525 24.3622 120.469 0Z" fill="#033824"/>
</svg>
